<svg id="svg" xmlns="http://www.w3.org/2000/svg" xmlns:xlink="http://www.w3.org/1999/xlink" width="400" height="499.7402597402598" viewBox="0, 0, 400,499.7402597402598"><g id="svgg"><path id="path0" d="M188.793 0.644 C 188.346 1.091,185.542 1.773,182.562 2.159 C 179.581 2.546,175.506 3.457,173.506 4.184 C 167.137 6.499,164.715 7.490,163.117 8.435 C 162.260 8.941,160.573 9.785,159.370 10.310 C 147.848 15.332,132.642 28.156,118.003 45.195 C 113.192 50.794,110.754 53.970,101.649 66.494 C 88.057 85.188,67.591 125.061,56.586 154.286 C 55.080 158.286,53.215 163.195,52.442 165.195 C 51.668 167.195,50.475 170.701,49.790 172.987 C 49.104 175.273,48.144 178.078,47.657 179.221 C 47.169 180.364,45.812 184.571,44.642 188.571 C 43.472 192.571,41.402 199.584,40.043 204.156 C 34.862 221.581,31.441 235.120,24.556 265.455 C 16.305 301.802,9.654 342.072,4.563 386.494 C 1.393 414.153,1.071 419.753,0.385 458.961 L -0.310 498.701 15.949 498.701 L 32.208 498.701 32.208 487.452 C 32.208 471.461,36.152 414.710,37.924 405.195 C 38.190 403.766,39.124 396.286,39.999 388.571 C 40.874 380.857,42.063 371.974,42.641 368.831 C 43.220 365.688,45.138 355.169,46.904 345.455 C 56.577 292.247,70.355 241.441,83.250 211.429 C 85.460 206.286,87.269 201.656,87.270 201.139 C 87.276 198.763,102.567 168.171,110.949 153.766 C 123.527 132.148,142.980 109.243,151.941 105.499 C 153.825 104.712,156.248 103.094,157.325 101.904 C 158.402 100.714,159.824 99.740,160.486 99.740 C 161.148 99.740,163.033 98.338,164.675 96.623 C 166.318 94.909,168.509 93.506,169.545 93.506 C 170.581 93.506,171.429 93.110,171.429 92.625 C 171.429 91.852,173.228 90.958,182.338 87.207 C 193.485 82.617,228.571 86.707,228.571 92.595 C 228.571 93.097,229.419 93.506,230.455 93.506 C 231.491 93.506,233.682 94.909,235.325 96.623 C 236.967 98.338,238.843 99.740,239.494 99.740 C 240.144 99.740,241.775 100.909,243.117 102.338 C 244.459 103.766,245.920 104.935,246.363 104.935 C 260.637 104.935,299.047 164.211,315.705 211.948 C 317.400 216.805,320.029 223.818,321.547 227.532 C 339.396 271.204,355.746 344.459,360.505 402.078 C 361.047 408.649,362.184 420.571,363.031 428.571 C 363.878 436.571,365.060 452.000,365.658 462.857 C 366.256 473.714,367.036 486.455,367.391 491.169 L 368.038 499.740 384.175 499.740 L 400.312 499.740 399.608 455.844 C 398.805 405.779,397.875 393.141,392.208 355.325 C 391.395 349.896,390.509 343.818,390.240 341.818 C 389.660 337.500,385.678 313.329,384.934 309.610 C 384.649 308.182,383.752 303.506,382.940 299.221 C 381.547 291.860,375.408 263.904,372.445 251.429 C 366.162 224.976,358.144 197.711,349.377 172.987 C 347.351 167.273,344.470 159.091,342.976 154.805 C 341.482 150.519,340.015 146.779,339.716 146.494 C 339.417 146.208,336.660 139.896,333.590 132.468 C 327.331 117.323,316.673 95.644,310.093 84.675 C 307.694 80.675,304.896 75.768,303.875 73.770 C 301.811 69.729,289.704 52.960,283.814 45.983 C 282.483 44.407,278.915 40.055,275.884 36.313 C 267.657 26.153,253.099 14.339,243.920 10.375 C 242.621 9.815,240.857 8.921,240.000 8.389 C 231.769 3.285,192.146 -2.708,188.793 0.644 M83.383 242.694 C 86.668 300.368,114.286 342.717,151.067 346.479 L 158.237 347.212 157.543 338.886 C 156.646 328.131,152.447 311.567,147.959 301.082 C 143.394 290.416,143.478 290.218,149.157 298.239 C 180.465 342.454,193.030 380.245,195.148 436.563 L 195.891 456.316 199.261 459.327 C 204.151 463.697,208.945 463.471,213.773 458.642 L 217.469 454.947 216.606 433.448 C 215.473 405.175,215.471 405.200,219.194 393.829 C 224.878 376.470,240.346 350.880,255.540 333.698 C 263.402 324.807,268.659 320.723,263.655 327.393 C 256.981 336.288,251.446 349.559,249.945 360.260 L 249.326 364.675 252.715 364.657 C 282.274 364.500,304.142 336.255,309.588 291.201 C 310.195 286.183,310.932 280.253,311.227 278.024 L 311.763 273.969 302.635 274.633 C 249.344 278.508,215.394 305.431,220.287 339.935 L 221.296 347.046 216.867 352.484 C 214.431 355.475,211.306 359.754,209.922 361.994 L 207.405 366.066 204.613 357.838 C 201.150 347.632,197.520 339.454,193.934 333.772 L 191.184 329.416 192.735 322.042 C 203.020 273.148,164.202 239.039,91.528 233.114 L 82.797 232.402 83.383 242.694 " stroke="none" fill="#000000" fill-rule="evenodd"></path></g></svg>